<svg xmlns="http://www.w3.org/2000/svg" viewBox="0 0 100 125" x="0px" y="0px"><title>sloth</title><g data-name="Calque 2"><path d="M50,10.75c-11.56,0-23,5.42-32.21,15.27C9.59,34.79,4.5,46,4.5,55.28c0,21,17.43,34,45.5,34s45.5-13,45.5-34C95.5,46,90.41,34.79,82.21,26,73,16.17,61.56,10.75,50,10.75Zm0,75.5c-20.55,0-42.5-8.13-42.5-31C7.5,38.95,25.75,13.75,50,13.75s42.5,25.2,42.5,41.53C92.5,78.12,70.55,86.25,50,86.25Z"/><path d="M50,64.25c2.76,0,5-3.12,5-4.5s-2.24-2.5-5-2.5-5,1.12-5,2.5S47.24,64.25,50,64.25Z"/><path d="M88,49.05a23.6,23.6,0,0,0-9.8-13.59,22.86,22.86,0,0,0-17.77-3.2A24.3,24.3,0,0,0,50,37.54a24.29,24.29,0,0,0-10.45-5.27,22.85,22.85,0,0,0-17.77,3.2A23.6,23.6,0,0,0,12,49.06l0,.07c-.18.66-.34,1.33-.47,2a25.45,25.45,0,0,0-.37,6.3c0,.6.1,1.2.18,1.8,0,.28.09.56.14.84s.1.61.16.91.16.71.25,1.07.1.42.16.63c.11.39.23.78.36,1.16l.17.5c.14.4.3.8.46,1.19l.19.45q.26.59.54,1.18l.22.43c.2.38.4.76.62,1.14l.26.42c.23.37.46.74.71,1.11l0,.06.41.61h0c.15.21.3.43.46.64a30.29,30.29,0,0,0,14.08,9A62.77,62.77,0,0,0,50,83.25a62.73,62.73,0,0,0,19.49-2.72A30.82,30.82,0,0,0,83,72.19c.34-.41.65-.84,1-1.27h0l.18-.26.15-.22.08-.12c.14-.2.26-.42.4-.62.26-.4.51-.81.74-1.22s.47-.83.68-1.26c.08-.17.16-.34.24-.52.2-.42.38-.83.56-1.26l.2-.52q.25-.65.46-1.31l.16-.52c.13-.45.25-.9.36-1.35,0-.17.09-.35.12-.52.1-.47.19-1,.27-1.43,0-.15.06-.3.08-.46.09-.62.16-1.25.2-1.88v0h0c0-.25,0-.5,0-.75s0-.54,0-.81,0-.43,0-.65,0-.62,0-.93c0,0,0-.09,0-.14a25.32,25.32,0,0,0-.37-3h0c-.13-.67-.28-1.33-.46-2Zm-2.11,7.39c0,.26,0,.53,0,.79,0,.55-.1,1.09-.17,1.63,0,.15,0,.29-.07.44-.06.4-.14.81-.22,1.21l-.11.48c-.09.39-.2.78-.31,1.17,0,.15-.08.3-.13.44-.14.44-.29.87-.46,1.3l-.15.38c-.17.43-.36.86-.56,1.28s-.28.56-.43.84l-.27.51q-.27.47-.56.94l-.1.16a24.12,24.12,0,0,1-9.42-1.8C64.27,62.74,59,55.52,61.18,50.11c1-2.51,3.52-4.29,7.08-5a22.4,22.4,0,0,1,12.52,1.48,25.82,25.82,0,0,1,3.92,2c.06.17.12.34.18.51s.17.53.24.8c.16.6.32,1.2.43,1.83a22.37,22.37,0,0,1,.3,2.35c0,.14,0,.27,0,.41s0,.48,0,.72,0,.45,0,.68S85.91,56.25,85.91,56.45ZM17.66,68a23,23,0,0,1-2.38-5l-.11-.32c-.11-.33-.21-.67-.3-1q-.07-.28-.14-.55c-.07-.29-.14-.58-.2-.86s-.1-.55-.15-.83-.08-.44-.11-.66c-.07-.51-.12-1-.16-1.55,0-.07,0-.13,0-.2a22.44,22.44,0,0,1,.34-5.36v0c.11-.61.26-1.21.43-1.8.08-.28.16-.55.25-.82s.11-.33.17-.5a26,26,0,0,1,3.92-2c8.64-3.46,17.43-1.88,19.6,3.53S35.73,62.74,27.09,66.2A23.93,23.93,0,0,1,17.66,68Zm50.91,9.68A59.76,59.76,0,0,1,50,80.25,59.85,59.85,0,0,1,31.5,77.69,28.46,28.46,0,0,1,20,70.93,27.86,27.86,0,0,0,28.2,69c10.17-4.08,16.19-13,13.4-20s-13.33-9.28-23.5-5.2l-.67.29a20.37,20.37,0,0,1,6-6.12,19.8,19.8,0,0,1,10.93-3.29,20.52,20.52,0,0,1,4.53.51A21.36,21.36,0,0,1,49,40.64l1,1,1-1a21.36,21.36,0,0,1,10.07-5.46A19.89,19.89,0,0,1,76.57,38a20.36,20.36,0,0,1,6,6.11l-.67-.29a25.4,25.4,0,0,0-14.24-1.63c-4.58.93-7.87,3.35-9.27,6.83-2.79,6.95,3.23,15.92,13.4,20A27.83,27.83,0,0,0,80,70.93,28.45,28.45,0,0,1,68.57,77.68Z"/><circle cx="71.33" cy="56" r="5.16"/><circle cx="28.67" cy="56" r="5.16"/><path d="M58,66a10.64,10.64,0,0,1-8,3.24A10.64,10.64,0,0,1,42,66a1.5,1.5,0,0,0-2.26,2A13.66,13.66,0,0,0,50,72.25,13.66,13.66,0,0,0,60.25,68,1.5,1.5,0,0,0,58,66Z"/></g></svg>
